<svg width="32" height="419" viewBox="0 0 32 419" fill="none" xmlns="http://www.w3.org/2000/svg">
<path d="M8.30776 6.1705C8.25205 3.13344 10.6689 0.62626 13.706 0.570551C16.743 0.514842 19.2502 2.9317 19.3059 5.96876L8.30776 6.1705ZM8.4405 6.23609C8.38937 3.19895 10.81 0.695417 13.8471 0.644286C16.8843 0.593155 19.3878 3.01379 19.4389 6.05093L8.4405 6.23609ZM19.3059 5.96876L25.6567 352.19L14.6586 352.392L8.30776 6.1705L19.3059 5.96876ZM19.4389 6.05093L25.785 383.001L14.7866 383.186L8.4405 6.23609L19.4389 6.05093Z" fill="#AA8855"/>
<path d="M7.97095 6.07632C7.96709 3.03876 10.4264 0.573199 13.464 0.569341C16.5015 0.565482 18.9671 3.02479 18.9709 6.06235L7.97095 6.07632ZM9.00374 6.15816C8.99989 3.1206 11.4592 0.655037 14.4968 0.651179C17.5343 0.647321 19.9999 3.10662 20.0037 6.14419L9.00374 6.15816ZM18.9709 6.06235L19.4502 383.403L8.45022 383.417L7.97095 6.07632L18.9709 6.06235ZM20.0037 6.14419L20.483 383.485L9.48302 383.499L9.00374 6.15816L20.0037 6.14419Z" fill="#AA8855"/>
<ellipse cx="14.2987" cy="57.6023" rx="10.6104" ry="9.09466" transform="rotate(89.7615 14.2987 57.6023)" fill="#AA8855"/>
<ellipse cx="15.7242" cy="126.944" rx="12.5052" ry="10.2315" transform="rotate(89.7615 15.7242 126.944)" fill="#AA8855"/>
<ellipse cx="16.7897" cy="200.834" rx="15.1578" ry="12.5052" transform="rotate(89.7615 16.7897 200.834)" fill="#AA8855"/>
<ellipse cx="16.3632" cy="280.415" rx="18.1893" ry="14.7788" transform="rotate(89.7615 16.3632 280.415)" fill="#AA8855"/>
<ellipse cx="16.3632" cy="280.415" rx="18.1893" ry="14.7788" transform="rotate(89.7615 16.3632 280.415)" fill="#AA8855"/>
<ellipse cx="16.1618" cy="391.208" rx="15.4412" ry="14.5588" transform="rotate(89.7615 16.1618 391.208)" fill="#AA8855"/>
<rect x="29.7996" y="322.043" width="30.3155" height="28.0419" rx="12" transform="rotate(89.7615 29.7996 322.043)" fill="#AA8855"/>
<rect x="20.6121" y="394.727" width="21.9612" height="8.02325" rx="4.01163" transform="rotate(70.8305 20.6121 394.727)" fill="#AA8855"/>
<path d="M17.7708 397.992C20.0692 398.892 21.2031 401.484 20.3035 403.783L16.3309 413.933C15.4313 416.231 12.8388 417.365 10.5405 416.465C8.2421 415.566 7.10816 412.973 8.00774 410.675L11.9804 400.525C12.88 398.227 15.4724 397.093 17.7708 397.992Z" fill="#AA8855"/>
</svg>
